<?xml version="1.0" encoding="UTF-8" standalone="no"?>
<!DOCTYPE svg PUBLIC "-//W3C//DTD SVG 1.1//EN" "http://www.w3.org/Graphics/SVG/1.1/DTD/svg11.dtd">
<!-- 由 Microsoft Visio, SVG Export 生成 ExecState-Transition.svg 页-1 -->
<svg xmlns="http://www.w3.org/2000/svg" xmlns:xlink="http://www.w3.org/1999/xlink" xmlns:ev="http://www.w3.org/2001/xml-events"
		width="4.31449in" height="2.52663in" viewBox="0 0 310.644 181.917" xml:space="preserve" color-interpolation-filters="sRGB"
		class="st15">
	<style type="text/css">
	<![CDATA[
		.st1 {fill:#ffffff;stroke:none;stroke-linecap:round;stroke-linejoin:round;stroke-width:0.5}
		.st2 {fill:#595959;stroke:none;stroke-linecap:round;stroke-linejoin:round;stroke-width:0.5}
		.st3 {fill:#ffffff;font-family:Calibri;font-size:0.833336em}
		.st4 {fill:#4070c0;stroke:none;stroke-linecap:round;stroke-linejoin:round;stroke-width:0.5}
		.st5 {fill:#136f63;stroke:none;stroke-linecap:round;stroke-linejoin:round;stroke-width:0.5}
		.st6 {fill:#c00000;stroke:none;stroke-linecap:round;stroke-linejoin:round;stroke-width:0.5}
		.st7 {fill:#f59040;stroke:none;stroke-linecap:round;stroke-linejoin:round;stroke-width:0.5}
		.st8 {fill:#032b43;fill-opacity:0.8;stroke:#032b43;stroke-dasharray:7,5;stroke-linecap:round;stroke-linejoin:round;stroke-width:1}
		.st9 {marker-end:url(#mrkr4-26);stroke:#262626;stroke-linecap:round;stroke-linejoin:round;stroke-width:0.5}
		.st10 {fill:#262626;fill-opacity:1;stroke:#262626;stroke-opacity:1;stroke-width:0.21739130434783}
		.st11 {fill:none;stroke:none;stroke-linecap:round;stroke-linejoin:round;stroke-width:0.5}
		.st12 {fill:#000000;font-family:Calibri;font-size:0.499992em}
		.st13 {font-size:1em}
		.st14 {font-size:1em;font-style:italic}
		.st15 {fill:none;fill-rule:evenodd;font-size:12px;overflow:visible;stroke-linecap:square;stroke-miterlimit:3}
	]]>
	</style>

	<defs id="Markers">
		<g id="lend4">
			<path d="M 2 1 L 0 0 L 2 -1 L 2 1 " style="stroke:none"/>
		</g>
		<marker id="mrkr4-26" class="st10" refX="-9.2" orient="auto" markerUnits="strokeWidth" overflow="visible">
			<use xlink:href="#lend4" transform="scale(-4.6,-4.6) "/>
		</marker>
	</defs>
	<g>
		<title>页-1</title>
		<g id="shape51-1" transform="translate(0.25,-0.25)">
			<title>圆角矩形.239</title>
			<path d="M7.23 181.92 L302.92 181.92 A7.22823 7.22823 -180 0 0 310.14 174.69 L310.14 7.73 A7.22823 7.22823 -180 0 0 302.92
						 0.5 L7.23 0.5 A7.22823 7.22823 -180 0 0 -0 7.73 L0 174.69 A7.22823 7.22823 -180 0 0 7.23 181.92 Z"
					class="st1"/>
		</g>
		<g id="shape27-3" transform="translate(137.134,-149.144)">
			<title>圆角矩形.236</title>
			<desc>INIT</desc>
			<path d="M3.19 181.92 L51.02 181.92 A3.1889 3.1889 -180 0 0 54.21 178.73 L54.21 156.76 A3.1889 3.1889 -180 0 0 51.02
						 153.57 L3.19 153.57 A3.1889 3.1889 -180 0 0 0 156.76 L0 178.73 A3.1889 3.1889 -180 0 0 3.19 181.92 Z"
					class="st2"/>
			<text x="18.92" y="170.74" class="st3">INIT</text>		</g>
		<g id="shape28-6" transform="translate(22.9508,-76.8602)">
			<title>圆角矩形.237</title>
			<desc>BLOCKED</desc>
			<path d="M2.83 181.92 L51.38 181.92 A2.8346 2.8346 -180 0 0 54.21 179.08 L54.21 156.41 A2.8346 2.8346 -180 0 0 51.38
						 153.57 L2.83 153.57 A2.8346 2.8346 -180 0 0 0 156.41 L0 179.08 A2.8346 2.8346 -180 0 0 2.83 181.92 Z"
					class="st4"/>
			<text x="8.19" y="170.74" class="st3">BLOCKED</text>		</g>
		<g id="shape29-9" transform="translate(137.134,-76.8602)">
			<title>圆角矩形.238</title>
			<desc>RUNNING</desc>
			<path d="M3.19 181.92 L51.02 181.92 A3.1889 3.1889 -180 0 0 54.21 178.73 L54.21 156.76 A3.1889 3.1889 -180 0 0 51.02
						 153.57 L3.19 153.57 A3.1889 3.1889 -180 0 0 0 156.76 L0 178.73 A3.1889 3.1889 -180 0 0 3.19 181.92 Z"
					class="st5"/>
			<text x="7.09" y="170.74" class="st3">RUNNING</text>		</g>
		<g id="shape30-12" transform="translate(22.9508,-4.57677)">
			<title>圆角矩形.30</title>
			<desc>ERROR</desc>
			<path d="M2.83 181.92 L51.38 181.92 A2.8346 2.8346 -180 0 0 54.21 179.08 L54.21 156.41 A2.8346 2.8346 -180 0 0 51.38
						 153.57 L2.83 153.57 A2.8346 2.8346 -180 0 0 0 156.41 L0 179.08 A2.8346 2.8346 -180 0 0 2.83 181.92 Z"
					class="st6"/>
			<text x="13.21" y="170.74" class="st3">ERROR</text>		</g>
		<g id="shape31-15" transform="translate(251.317,-76.8602)">
			<title>圆角矩形.240</title>
			<desc>PAUSED</desc>
			<path d="M3.19 181.92 L51.02 181.92 A3.18891 3.18891 -180 0 0 54.21 178.73 L54.21 156.76 A3.18891 3.18891 -180 0 0 51.02
						 153.57 L3.19 153.57 A3.18891 3.18891 -180 0 0 0 156.76 L0 178.73 A3.18891 3.18891 -180 0 0 3.19 181.92 Z"
					class="st7"/>
			<text x="10.61" y="170.74" class="st3">PAUSED</text>		</g>
		<g id="shape32-18" transform="translate(137.134,-4.57677)">
			<title>圆角矩形.241</title>
			<desc>COMPLETE</desc>
			<path d="M3.19 181.92 L51.02 181.92 A3.1889 3.1889 -180 0 0 54.21 178.73 L54.21 156.76 A3.1889 3.1889 -180 0 0 51.02
						 153.57 L3.19 153.57 A3.1889 3.1889 -180 0 0 0 156.76 L0 178.73 A3.1889 3.1889 -180 0 0 3.19 181.92 Z"
					class="st8"/>
			<text x="4.85" y="170.74" class="st3">COMPLETE</text>		</g>
		<g id="shape33-21" transform="translate(157.154,-149.144)">
			<title>动态连接线</title>
			<path d="M7.09 181.92 L7.09 221.25" class="st9"/>
		</g>
		<g id="shape34-27" transform="translate(157.154,-76.8602)">
			<title>动态连接线.246</title>
			<path d="M7.09 181.92 L7.09 221.25" class="st9"/>
		</g>
		<g id="shape35-32" transform="translate(251.317,-79.6949)">
			<title>动态连接线.247</title>
			<path d="M0 174.83 L-55.37 174.83" class="st9"/>
		</g>
		<g id="shape36-37" transform="translate(42.9705,-76.8602)">
			<title>动态连接线.248</title>
			<path d="M7.09 181.92 L7.09 221.25" class="st9"/>
		</g>
		<g id="shape37-42" transform="translate(164.24,-149.144)">
			<title>动态连接线.249</title>
			<path d="M0 181.92 L0 199.96 L-114.18 199.96 L-114.18 221.25" class="st9"/>
		</g>
		<g id="shape38-47" transform="translate(148.03,-76.8602)">
			<title>动态连接线.250</title>
			<path d="M0 181.92 L0 191.84 L-82.2 191.84 L-82.2 221.25" class="st9"/>
		</g>
		<g id="shape39-52" transform="translate(77.1633,-93.8681)">
			<title>动态连接线.251</title>
			<path d="M0 189 L0 180 L59.97 180 L59.97 184.4" class="st9"/>
		</g>
		<g id="shape40-57" transform="translate(191.346,-102.372)">
			<title>动态连接线.254</title>
			<path d="M0 189 L55.37 189" class="st9"/>
		</g>
		<g id="shape41-62" transform="translate(135.495,-93.1594)">
			<title>动态连接线.268</title>
			<path d="M1.64 179.79 L-11.56 179.79 L-11.56 157.11 L12.53 157.11 L12.53 165.27" class="st9"/>
		</g>
		<g id="shape42-67" transform="translate(164.1,-45.6791)">
			<title>工作表.42</title>
			<desc>execCount &#62;= maxExecCount || LocalDateTime.now().isAfter(endT...</desc>
			<rect x="0" y="162.075" width="103.921" height="19.8425" class="st11"/>
			<text x="4" y="170.2" class="st12">execCount &#62;= maxExecCount || <tspan x="4" dy="1.2em" class="st13">L</tspan>ocalDateTime.<tspan
						class="st14">now</tspan>().isAfter(endTime)</text>		</g>
		<g id="shape43-72" transform="translate(199.609,-97.5531)">
			<title>工作表.43</title>
			<desc>pauseTask()</desc>
			<rect x="0" y="174.264" width="43.4449" height="7.65355" class="st11"/>
			<text x="7.21" y="179.89" class="st12">pauseTask()</text>		</g>
		<g id="shape44-75" transform="translate(199.609,-77.2854)">
			<title>工作表.44</title>
			<desc>resumeTask()</desc>
			<rect x="0" y="174.264" width="43.4449" height="7.65355" class="st11"/>
			<text x="5.29" y="179.89" class="st12">resumeTask()</text>		</g>
		<g id="shape45-78" transform="translate(81.8779,-57.5492)">
			<title>工作表.45</title>
			<desc>throw Execption</desc>
			<rect x="0" y="173.413" width="50.5413" height="8.50394" class="st11"/>
			<text x="5.29" y="179.47" class="st12">throw Execption</text>		</g>
		<g id="shape46-81" transform="translate(80.0423,-77.1437)">
			<title>工作表.46</title>
			<desc>auto-reschedule</desc>
			<rect x="0" y="173.413" width="54.2126" height="8.50394" class="st11"/>
			<text x="7.21" y="179.47" class="st12">auto-reschedule</text>		</g>
		<g id="shape47-84" transform="translate(85.2099,-104.923)">
			<title>工作表.47</title>
			<desc>auto-resume after reboot</desc>
			<rect x="0" y="166.327" width="40.1424" height="15.5905" class="st11"/>
			<text x="4.38" y="172.32" class="st12">auto-resume  <tspan x="4.54" dy="1.2em" class="st13">after  reboot</tspan></text>		</g>
		<g id="shape48-88" transform="translate(163.982,-134.97)">
			<title>工作表.48</title>
			<desc>scheduleTask()</desc>
			<rect x="0" y="173.413" width="44.9921" height="8.50394" class="st11"/>
			<text x="4.4" y="179.47" class="st12">scheduleTask()</text>		</g>
		<g id="shape49-91" transform="translate(0.25,-45.6791)">
			<title>工作表.49</title>
			<desc>rescheduleCount &#62;= maxAttempts</desc>
			<rect x="0" y="162.075" width="49.6063" height="19.8425" class="st11"/>
			<text x="4.08" y="170.2" class="st12">rescheduleCount <tspan x="4.62" dy="1.2em" class="st13">&#62;= maxAttempts</tspan></text>		</g>
		<g id="shape50-95" transform="translate(63.465,-132.419)">
			<title>工作表.50</title>
			<desc>throw TaskRejectExecption</desc>
			<rect x="0" y="173.413" width="75.0187" height="8.50394" class="st11"/>
			<text x="4.48" y="179.47" class="st12">throw TaskRejectExecption</text>		</g>
	</g>
</svg>
