<?xml version="1.0" encoding="UTF-8" standalone="no"?>
<!DOCTYPE svg PUBLIC "-//W3C//DTD SVG 1.1//EN" "http://www.w3.org/Graphics/SVG/1.1/DTD/svg11.dtd">
<!-- 由 Microsoft Visio, SVG Export 生成 ExecState-Transition.svg 页-1 -->
<svg xmlns="http://www.w3.org/2000/svg" xmlns:xlink="http://www.w3.org/1999/xlink" xmlns:ev="http://www.w3.org/2001/xml-events"
		width="4.35189in" height="2.53114in" viewBox="0 0 313.336 182.242" xml:space="preserve" color-interpolation-filters="sRGB"
		class="st15">
	<style type="text/css">
	<![CDATA[
		.st1 {fill:#ffffff;stroke:none;stroke-linecap:round;stroke-linejoin:round;stroke-width:0.5}
		.st2 {fill:#595959;stroke:none;stroke-linecap:round;stroke-linejoin:round;stroke-width:0.5}
		.st3 {fill:#ffffff;font-family:Calibri;font-size:0.833336em}
		.st4 {fill:#4070c0;stroke:none;stroke-linecap:round;stroke-linejoin:round;stroke-width:0.5}
		.st5 {fill:#136f63;stroke:none;stroke-linecap:round;stroke-linejoin:round;stroke-width:0.5}
		.st6 {fill:#c00000;stroke:none;stroke-linecap:round;stroke-linejoin:round;stroke-width:0.5}
		.st7 {fill:#f59040;stroke:none;stroke-linecap:round;stroke-linejoin:round;stroke-width:0.5}
		.st8 {fill:#032b43;fill-opacity:0.8;stroke:#032b43;stroke-dasharray:7,5;stroke-linecap:round;stroke-linejoin:round;stroke-width:1}
		.st9 {marker-end:url(#mrkr4-27);stroke:#262626;stroke-linecap:round;stroke-linejoin:round;stroke-width:0.5}
		.st10 {fill:#262626;fill-opacity:1;stroke:#262626;stroke-opacity:1;stroke-width:0.21739130434783}
		.st11 {fill:none;stroke:none;stroke-linecap:round;stroke-linejoin:round;stroke-width:0.5}
		.st12 {fill:#000000;font-family:Calibri;font-size:0.499992em}
		.st13 {font-size:1em}
		.st14 {marker-end:url(#mrkr4-98);stroke:#262626;stroke-linecap:round;stroke-linejoin:round;stroke-width:0.5}
		.st15 {fill:none;fill-rule:evenodd;font-size:12px;overflow:visible;stroke-linecap:square;stroke-miterlimit:3}
	]]>
	</style>

	<defs id="Markers">
		<g id="lend4">
			<path d="M 2 1 L 0 0 L 2 -1 L 2 1 " style="stroke:none"/>
		</g>
		<marker id="mrkr4-27" class="st10" refX="-9.2" orient="auto" markerUnits="strokeWidth" overflow="visible">
			<use xlink:href="#lend4" transform="scale(-4.6,-4.6) "/>
		</marker>
		<marker id="mrkr4-98" class="st10" refX="-8.48" orient="auto" markerUnits="strokeWidth" overflow="visible">
			<use xlink:href="#lend4" transform="scale(-4.6,-4.6) "/>
		</marker>
	</defs>
	<g>
		<title>页-1</title>
		<g id="group60-1" transform="translate(0.24988,-0.25)">
			<title>工作表.60</title>
			<g id="shape51-2">
				<title>圆角矩形.239</title>
				<path d="M7.29 182.24 L305.55 182.24 A7.29099 7.29099 -180 0 0 312.84 174.95 L312.84 7.79 A7.29099 7.29099 -180 0
							 0 305.55 0.5 L7.29 0.5 A7.29099 7.29099 -180 0 0 0 7.79 L0 174.95 A7.29099 7.29099 -180 0 0 7.29 182.24
							 Z" class="st1"/>
			</g>
			<g id="shape27-4" transform="translate(137.134,-149.144)">
				<title>圆角矩形.236</title>
				<desc>INIT</desc>
				<path d="M3.19 182.24 L51.02 182.24 A3.1889 3.1889 -180 0 0 54.21 179.05 L54.21 157.08 A3.1889 3.1889 -180 0 0 51.02
							 153.9 L3.19 153.9 A3.1889 3.1889 -180 0 0 0 157.08 L0 179.05 A3.1889 3.1889 -180 0 0 3.19 182.24 Z"
						class="st2"/>
				<text x="18.92" y="171.07" class="st3">INIT</text>			</g>
			<g id="shape28-7" transform="translate(22.9508,-76.8602)">
				<title>圆角矩形.237</title>
				<desc>BLOCKED</desc>
				<path d="M2.83 182.24 L51.38 182.24 A2.8346 2.8346 -180 0 0 54.21 179.41 L54.21 156.73 A2.8346 2.8346 -180 0 0 51.38
							 153.9 L2.83 153.9 A2.8346 2.8346 -180 0 0 0 156.73 L0 179.41 A2.8346 2.8346 -180 0 0 2.83 182.24 Z"
						class="st4"/>
				<text x="8.19" y="171.07" class="st3">BLOCKED</text>			</g>
			<g id="shape29-10" transform="translate(137.134,-76.8602)">
				<title>圆角矩形.238</title>
				<desc>RUNNING</desc>
				<path d="M3.19 182.24 L51.02 182.24 A3.1889 3.1889 -180 0 0 54.21 179.05 L54.21 157.08 A3.1889 3.1889 -180 0 0 51.02
							 153.9 L3.19 153.9 A3.1889 3.1889 -180 0 0 0 157.08 L0 179.05 A3.1889 3.1889 -180 0 0 3.19 182.24 Z"
						class="st5"/>
				<text x="7.09" y="171.07" class="st3">RUNNING</text>			</g>
			<g id="shape30-13" transform="translate(22.9508,-4.57677)">
				<title>圆角矩形.30</title>
				<desc>ERROR</desc>
				<path d="M2.83 182.24 L51.38 182.24 A2.8346 2.8346 -180 0 0 54.21 179.41 L54.21 156.73 A2.8346 2.8346 -180 0 0 51.38
							 153.9 L2.83 153.9 A2.8346 2.8346 -180 0 0 0 156.73 L0 179.41 A2.8346 2.8346 -180 0 0 2.83 182.24 Z"
						class="st6"/>
				<text x="13.21" y="171.07" class="st3">ERROR</text>			</g>
			<g id="shape31-16" transform="translate(251.317,-76.8602)">
				<title>圆角矩形.240</title>
				<desc>PAUSED</desc>
				<path d="M3.19 182.24 L51.02 182.24 A3.18891 3.18891 -180 0 0 54.21 179.05 L54.21 157.08 A3.18891 3.18891 -180 0
							 0 51.02 153.9 L3.19 153.9 A3.18891 3.18891 -180 0 0 0 157.08 L0 179.05 A3.18891 3.18891 -180 0 0 3.19
							 182.24 Z" class="st7"/>
				<text x="10.61" y="171.07" class="st3">PAUSED</text>			</g>
			<g id="shape32-19" transform="translate(134.303,-4.57677)">
				<title>圆角矩形.241</title>
				<desc>COMPLETED</desc>
				<path d="M2.98 182.24 L56.89 182.24 A2.98026 2.98026 -180 0 0 59.87 179.26 L59.87 156.88 A2.98026 2.98026 -180 0
							 0 56.89 153.9 L2.98 153.9 A2.98026 2.98026 -180 0 0 0 156.88 L0 179.26 A2.98026 2.98026 -180 0 0 2.98
							 182.24 Z" class="st8"/>
				<text x="4.6" y="171.07" class="st3">COMPLETED</text>			</g>
			<g id="shape33-22" transform="translate(157.154,-149.144)">
				<title>动态连接线</title>
				<path d="M7.09 182.24 L7.09 221.58" class="st9"/>
			</g>
			<g id="shape34-28" transform="translate(157.154,-76.8602)">
				<title>动态连接线.246</title>
				<path d="M7.09 182.24 L7.09 221.58" class="st9"/>
			</g>
			<g id="shape35-33" transform="translate(251.317,-79.6949)">
				<title>动态连接线.247</title>
				<path d="M0 175.16 L-55.37 175.16" class="st9"/>
			</g>
			<g id="shape36-38" transform="translate(42.9705,-76.8602)">
				<title>动态连接线.248</title>
				<path d="M7.09 182.24 L7.09 221.58" class="st9"/>
			</g>
			<g id="shape37-43" transform="translate(164.24,-149.144)">
				<title>动态连接线.249</title>
				<path d="M0 182.24 L0 200.29 L-114.18 200.29 L-114.18 221.58" class="st9"/>
			</g>
			<g id="shape38-48" transform="translate(148.03,-76.8602)">
				<title>动态连接线.250</title>
				<path d="M0 182.24 L0 192.16 L-82.2 192.16 L-82.2 221.58" class="st9"/>
			</g>
			<g id="shape39-53" transform="translate(77.1633,-93.8681)">
				<title>动态连接线.251</title>
				<path d="M0 189.33 L55.37 189.33" class="st9"/>
			</g>
			<g id="shape40-58" transform="translate(191.346,-102.372)">
				<title>动态连接线.254</title>
				<path d="M0 189.33 L55.37 189.33" class="st9"/>
			</g>
			<g id="shape42-63" transform="translate(164.1,-45.6791)">
				<title>工作表.42</title>
				<desc>execCount &#62;= maxExecCount || LocalDateTime.now().isAfter(endT...</desc>
				<rect x="0" y="162.4" width="103.921" height="19.8425" class="st11"/>
				<text x="4" y="170.52" class="st12">execCount &#62;= maxExecCount || <tspan x="4" dy="1.2em" class="st13">L</tspan>ocalDateTime.now().isAfter(endTime)</text>			</g>
			<g id="shape43-67" transform="translate(199.609,-97.5531)">
				<title>工作表.43</title>
				<desc>pauseTask()</desc>
				<rect x="0" y="174.589" width="43.4449" height="7.65355" class="st11"/>
				<text x="7.21" y="180.22" class="st12">pauseTask()</text>			</g>
			<g id="shape44-70" transform="translate(199.609,-77.2854)">
				<title>工作表.44</title>
				<desc>resumeTask()</desc>
				<rect x="0" y="174.589" width="43.4449" height="7.65355" class="st11"/>
				<text x="5.29" y="180.22" class="st12">resumeTask()</text>			</g>
			<g id="shape45-73" transform="translate(81.8779,-57.5492)">
				<title>工作表.45</title>
				<desc>throw Exception</desc>
				<rect x="0" y="173.738" width="50.5413" height="8.50394" class="st11"/>
				<text x="5.29" y="179.79" class="st12">throw Exception</text>			</g>
			<g id="shape46-76" transform="translate(80.0423,-77.1437)">
				<title>工作表.46</title>
				<desc>auto-reschedule</desc>
				<rect x="0" y="173.738" width="54.2126" height="8.50394" class="st11"/>
				<text x="7.21" y="179.79" class="st12">auto-reschedule</text>			</g>
			<g id="shape47-79" transform="translate(85.2099,-104.923)">
				<title>工作表.47</title>
				<desc>auto-resume after reboot</desc>
				<rect x="0" y="166.652" width="40.1424" height="15.5905" class="st11"/>
				<text x="4.38" y="172.65" class="st12">auto-resume  <tspan x="4.54" dy="1.2em" class="st13">after  reboot</tspan></text>			</g>
			<g id="shape48-83" transform="translate(163.982,-134.97)">
				<title>工作表.48</title>
				<desc>scheduleTask()</desc>
				<rect x="0" y="173.738" width="44.9921" height="8.50394" class="st11"/>
				<text x="4.4" y="179.79" class="st12">scheduleTask()</text>			</g>
			<g id="shape49-86" transform="translate(0.25,-45.6791)">
				<title>工作表.49</title>
				<desc>rescheduleCount &#62;= maxAttempts</desc>
				<rect x="0" y="162.4" width="49.6063" height="19.8425" class="st11"/>
				<text x="4.08" y="170.52" class="st12">rescheduleCount <tspan x="4.62" dy="1.2em" class="st13">&#62;= maxAttempts</tspan></text>			</g>
			<g id="shape50-90" transform="translate(52.2992,-132.419)">
				<title>工作表.50</title>
				<desc>throw TaskRejectedException</desc>
				<rect x="0" y="173.738" width="86.1846" height="8.50394" class="st11"/>
				<text x="7" y="179.79" class="st12">throw TaskRejectedException</text>			</g>
			<g id="shape55-93" transform="translate(14.4352,-47.7921) rotate(-42.3202)">
				<title>曲线连接 2</title>
				<path d="M0 182.24 A11.8859 11.8859 0 1 1 17.73 178.75 L17.49 179.02" class="st14"/>
			</g>
		</g>
	</g>
</svg>
