<?xml version="1.0" encoding="UTF-8" standalone="no"?>
<!DOCTYPE svg PUBLIC "-//W3C//DTD SVG 1.1//EN" "http://www.w3.org/Graphics/SVG/1.1/DTD/svg11.dtd">
<!-- 由 Microsoft Visio, SVG Export 生成 Structure.svg 页-1 -->
<svg xmlns="http://www.w3.org/2000/svg" xmlns:xlink="http://www.w3.org/1999/xlink" xmlns:ev="http://www.w3.org/2001/xml-events"
		width="6.17137in" height="2.16489in" viewBox="0 0 444.339 155.872" xml:space="preserve" color-interpolation-filters="sRGB"
		class="st27">
	<style type="text/css">
	<![CDATA[
		.st1 {fill:#494264;stroke:none;stroke-linecap:round;stroke-linejoin:round;stroke-width:0.5}
		.st2 {fill:#ffffff;font-family:微软雅黑;font-size:0.833336em;font-weight:bold}
		.st3 {fill:none;stroke:none;stroke-linecap:round;stroke-linejoin:round;stroke-width:0.5}
		.st4 {fill:#494264;font-family:Calibri;font-size:0.833336em;font-weight:bold}
		.st5 {font-family:微软雅黑;font-size:1em}
		.st6 {fill:none;stroke:#494264;stroke-dasharray:4.5,4.5;stroke-linecap:round;stroke-linejoin:round;stroke-width:1.5}
		.st7 {visibility:visible}
		.st8 {fill:#000000;stroke:#000000;stroke-linecap:round;stroke-linejoin:round}
		.st9 {fill:#ffffff;stroke:#000000;stroke-linecap:round;stroke-linejoin:round;stroke-width:1.5}
		.st10 {fill:none}
		.st11 {stroke:none;stroke-linecap:round;stroke-linejoin:round;stroke-width:1.5;visibility:hidden}
		.st12 {fill:#494264;font-family:Calibri;font-size:0.499992em;font-weight:bold}
		.st13 {fill:#bebad1;stroke:#bfbfbf;stroke-linecap:round;stroke-linejoin:round;stroke-width:0.75}
		.st14 {stroke:#ffffff;stroke-linecap:butt;stroke-width:0.75}
		.st15 {stroke:#312c43;stroke-linecap:butt;stroke-width:0.75}
		.st16 {fill:none;stroke:none;stroke-linecap:round;stroke-linejoin:round;stroke-width:1.5}
		.st17 {fill:#494264;font-family:微软雅黑;font-size:0.833336em;font-weight:bold}
		.st18 {stroke:#494264;stroke-linecap:round;stroke-linejoin:round;stroke-width:1.5}
		.st19 {font-size:1em}
		.st20 {marker-end:url(#mrkr4-116);stroke:#312c43;stroke-linecap:round;stroke-linejoin:round;stroke-width:0.5}
		.st21 {fill:#312c43;fill-opacity:1;stroke:#312c43;stroke-opacity:1;stroke-width:0.21739130434783}
		.st22 {fill:#494264;stroke:none;stroke-linecap:round;stroke-linejoin:round;stroke-width:1.5}
		.st23 {fill:none;stroke:#494264;stroke-linecap:round;stroke-linejoin:round;stroke-width:1.5}
		.st24 {fill:#fefefe;stroke:none;stroke-linecap:round;stroke-linejoin:round;stroke-width:0.75}
		.st25 {fill:#494264;stroke:none;stroke-linecap:round;stroke-linejoin:round;stroke-width:0.75}
		.st26 {fill:#494264;font-family:Calibri;font-size:1.00001em;font-weight:bold}
		.st27 {fill:none;fill-rule:evenodd;font-size:12px;overflow:visible;stroke-linecap:square;stroke-miterlimit:3}
	]]>
	</style>

	<defs id="Markers">
		<g id="lend4">
			<path d="M 2 1 L 0 0 L 2 -1 L 2 1 " style="stroke:none"/>
		</g>
		<marker id="mrkr4-116" class="st21" refX="-9.2" orient="auto" markerUnits="strokeWidth" overflow="visible">
			<use xlink:href="#lend4" transform="scale(-4.6,-4.6) "/>
		</marker>
	</defs>
	<g>
		<title>页-1</title>
		<g id="group316-1" transform="translate(0.25,-0.75)">
			<title>工作表.316</title>
			<g id="shape13-2" transform="translate(143.433,-71.8583)">
				<title>圆角矩形</title>
				<desc>任务存储中心</desc>
				<path d="M4.46 155.87 L131.31 155.87 A4.46447 4.46447 -180 0 0 135.78 151.41 L135.78 131.99 A4.46447 4.46447 -180
							 0 0 131.31 127.53 L4.46 127.53 A4.46447 4.46447 -180 0 0 -0 131.99 L0 151.41 A4.46447 4.46447 -180 0
							 0 4.46 155.87 Z" class="st1"/>
				<text x="37.89" y="144.7" class="st2">任务存储中心</text>			</g>
			<g id="shape18-5" transform="translate(143.433,-121.039)">
				<title>圆角矩形.18</title>
				<desc>任务调度器</desc>
				<path d="M4.75 155.87 L131.03 155.87 A4.75344 4.75344 -180 0 0 135.78 151.12 L135.78 132.28 A4.75344 4.75344 -180
							 0 0 131.03 127.53 L4.75 127.53 A4.75344 4.75344 -180 0 0 -0 132.28 L0 151.12 A4.75344 4.75344 -180 0
							 0 4.75 155.87 Z" class="st1"/>
				<text x="42.89" y="144.7" class="st2">任务调度器</text>			</g>
			<g id="shape87-8" transform="translate(-7.99361E-15,-125.858)">
				<title>工作表.87</title>
				<desc>@EnableEzScheduling 启用定时任务组件</desc>
				<rect x="0" y="127.526" width="117.921" height="28.3465" class="st3"/>
				<text x="13.49" y="137.86" class="st4">@EnableEzScheduling <tspan x="18.96" dy="1.514em" class="st5">启用定时任务组件</tspan></text>			</g>
			<g id="group270-12" transform="translate(307.559,-71.8583)">
				<title>工作表.270</title>
				<g id="shape150-13">
					<title>圆角矩形.150</title>
					<path d="M4.25 155.87 L131.53 155.87 A4.2519 4.2519 -180 0 0 135.78 151.62 L135.78 82.6 A4.2519 4.2519 -180 0
								 0 131.53 78.34 L4.25 78.34 A4.2519 4.2519 -180 0 0 0 82.6 L0 151.62 A4.2519 4.2519 -180 0 0 4.25
								 155.87 Z" class="st6"/>
				</g>
				<g id="group264-15" transform="translate(10.4173,-11.5374)">
					<title>工作表.264</title>
					<g id="group231-16">
						<title>应用程序窗体</title>
						<g id="shape231-17">
							<g id="shadow231-18" transform="matrix(1,0,0,1,2.12598,2.12598)" class="st7">
								<rect x="0" y="120.05" width="114.945" height="35.8221" rx="4.25197" ry="4.25197" class="st8"/>
							</g>
							<rect x="0" y="120.05" width="114.945" height="35.8221" rx="4.25197" ry="4.25197" class="st9"/>
						</g>
						<g id="shape232-21" transform="translate(0,-16.842)">
							<title>工作表.232</title>
							<desc>[ECS] Admin Panel</desc>
							<rect x="0" y="132.669" width="114.945" height="23.2035" rx="4.25197" ry="4.25197" class="st10"/>
							<rect x="0" y="132.669" width="114.945" height="23.2035" rx="4.25197" ry="4.25197" class="st11"/>
							<text x="8" y="146.07" class="st12">[ECS] Admin Panel</text>						</g>
					</g>
					<g id="group263-25" transform="translate(6.82573,-6.36046)">
						<title>工作表.263</title>
						<g id="group254-26" transform="translate(0,-10.5173)">
							<title>工作表.254</title>
							<g id="shape247-27">
								<title>工作表.247</title>
								<rect x="0" y="151.365" width="101.02" height="4.50741" class="st13"/>
							</g>
							<g id="shape248-29" transform="translate(101.02,309.491) rotate(180)">
								<title>工作表.248</title>
								<g id="shadow248-30" transform="matrix(1,0,0,1,0,-0.72)" class="st7">
									<path d="M0 155.87 L87.55 155.87" class="st14"/>
								</g>
								<path d="M0 155.87 L87.55 155.87" class="st15"/>
							</g>
							<g id="shape250-35" transform="translate(169.342,151.365) rotate(90)">
								<title>工作表.250</title>
								<g id="shadow250-36" transform="matrix(1,0,0,1,-7.10543E-14,-0.72)" class="st7">
									<path d="M0 155.87 L4.51 155.87" class="st14"/>
								</g>
								<path d="M0 155.87 L4.51 155.87" class="st15"/>
							</g>
						</g>
						<g id="group255-41" transform="translate(0,-5.25866)">
							<title>工作表.255</title>
							<g id="shape256-42">
								<title>工作表.256</title>
								<rect x="0" y="151.365" width="101.02" height="4.50741" class="st13"/>
							</g>
							<g id="shape257-44" transform="translate(101.02,309.491) rotate(180)">
								<title>工作表.257</title>
								<g id="shadow257-45" transform="matrix(1,0,0,1,0,-0.72)" class="st7">
									<path d="M0 155.87 L87.55 155.87" class="st14"/>
								</g>
								<path d="M0 155.87 L87.55 155.87" class="st15"/>
							</g>
							<g id="shape258-50" transform="translate(169.342,151.365) rotate(90)">
								<title>工作表.258</title>
								<g id="shadow258-51" transform="matrix(1,0,0,1,-7.10543E-14,-0.72)" class="st7">
									<path d="M0 155.87 L4.51 155.87" class="st14"/>
								</g>
								<path d="M0 155.87 L4.51 155.87" class="st15"/>
							</g>
						</g>
						<g id="group259-56">
							<title>工作表.259</title>
							<g id="shape260-57">
								<title>工作表.260</title>
								<rect x="0" y="151.365" width="101.02" height="4.50741" class="st13"/>
							</g>
							<g id="shape261-59" transform="translate(101.02,309.491) rotate(180)">
								<title>工作表.261</title>
								<g id="shadow261-60" transform="matrix(1,0,0,1,0,-0.72)" class="st7">
									<path d="M0 155.87 L87.55 155.87" class="st14"/>
								</g>
								<path d="M0 155.87 L87.55 155.87" class="st15"/>
							</g>
							<g id="shape262-65" transform="translate(169.342,151.365) rotate(90)">
								<title>工作表.262</title>
								<g id="shadow262-66" transform="matrix(1,0,0,1,-7.10543E-14,-0.72)" class="st7">
									<path d="M0 155.87 L4.51 155.87" class="st14"/>
								</g>
								<path d="M0 155.87 L4.51 155.87" class="st15"/>
							</g>
						</g>
					</g>
				</g>
				<g id="shape265-71" transform="translate(1.83853E-13,-47.4781)">
					<title>工作表.265</title>
					<desc>管理端控制面板</desc>
					<rect x="0" y="125.823" width="135.78" height="30.0494" class="st16"/>
					<text x="32.89" y="143.88" class="st17">管理端控制面板</text>				</g>
			</g>
			<g id="group271-74" transform="translate(307.559,-2.84217E-14)">
				<title>工作表.271</title>
				<g id="shape17-75">
					<title>圆角矩形.17</title>
					<path d="M4.25 155.87 L131.53 155.87 A4.2519 4.2519 -180 0 0 135.78 151.62 L135.78 102.3 A4.2519 4.2519 -180
								 0 0 131.53 98.05 L4.25 98.05 A4.2519 4.2519 -180 0 0 -0 102.3 L0 151.62 A4.2519 4.2519 -180 0 0
								 4.25 155.87 Z" class="st6"/>
				</g>
				<g id="group84-77" transform="translate(69.6614,-8.62063)">
					<title>工作表.84</title>
					<g id="group59-78" transform="translate(35.433,0)">
						<title>工作表.59</title>
						<g id="shape26-79" transform="translate(155.872,132.458) rotate(90)">
							<title>直线</title>
							<path d="M0 155.87 L20.07 155.87" class="st18"/>
						</g>
						<g id="shape43-82" transform="translate(21.2598,295.02) rotate(180)">
							<title>工作表.43</title>
							<path d="M-0 155.87 A10.6299 4.25198 -180 0 1 21.26 155.87" class="st18"/>
						</g>
						<g id="shape45-85" transform="translate(21.2598,301.71) rotate(180)">
							<title>工作表.45</title>
							<path d="M-0 155.87 A10.6299 4.25198 -180 0 1 21.26 155.87" class="st18"/>
						</g>
						<g id="shape46-88" transform="translate(21.2598,308.4) rotate(180)">
							<title>工作表.46</title>
							<path d="M-0 155.87 A10.6299 4.25198 -180 0 1 21.26 155.87" class="st18"/>
						</g>
						<g id="shape47-91" transform="translate(177.132,132.458) rotate(90)">
							<title>直线.47</title>
							<path d="M0 155.87 L20.07 155.87" class="st18"/>
						</g>
						<g id="shape57-94" transform="translate(21.2598,288.33) rotate(180)">
							<title>工作表.57</title>
							<path d="M-0 155.87 A10.6299 4.25198 -180 0 1 21.26 155.87" class="st18"/>
						</g>
						<g id="shape58-97" transform="translate(21.2598,-23.4147) scale(-1,1)">
							<title>工作表.58</title>
							<path d="M-0 155.87 A10.6299 4.25198 -180 0 1 21.26 155.87" class="st18"/>
						</g>
					</g>
					<g id="shape61-100" transform="translate(5.59552E-14,-11.5959)">
						<title>工作表.61</title>
						<desc>SQL Server</desc>
						<rect x="0" y="126.883" width="35.433" height="28.9897" class="st16"/>
						<text x="9.81" y="138.38" class="st4">SQL <tspan x="4.4" dy="1.2em" class="st19">Server</tspan></text>					</g>
					<g id="shape82-104" transform="translate(9.19265E-14,-5.79793)">
						<title>工作表.82</title>
						<path d="M2.51 155.87 L30.71 155.87" class="st18"/>
						<path d="M46.06 129.2 L46.06 123.57 A2.50679 2.48479 -180 0 0 43.56 121.08 L2.51 121.08 A2.50679 2.48479
									 -180 0 0 0 123.57 L0 153.39 A2.50679 2.48479 -180 0 0 2.51 155.87" class="st18"/>
					</g>
				</g>
				<g id="shape156-108" transform="translate(2.79776E-14,-1.44949)">
					<title>工作表.156</title>
					<desc>持久化服务</desc>
					<rect x="0" y="100.945" width="67.8898" height="54.9278" class="st16"/>
					<text x="8.94" y="131.45" class="st17">持久化服务</text>				</g>
			</g>
			<g id="shape282-111" transform="translate(186.061,30.0141) rotate(90)">
				<title>有向线 1</title>
				<path d="M0 155.87 L12.69 155.87" class="st20"/>
			</g>
			<g id="shape289-117" transform="translate(186.061,86.9904) rotate(90)">
				<title>有向线 1.289</title>
				<path d="M0 155.87 L20.34 155.87" class="st20"/>
			</g>
			<g id="shape290-122" transform="translate(367.195,34.833) rotate(90)">
				<title>有向线 1.290</title>
				<path d="M0 155.87 L16.23 155.87" class="st20"/>
			</g>
			<g id="shape292-127" transform="translate(279.062,-86.0314) rotate(-0.0554098)">
				<title>有向线 1.292</title>
				<path d="M0 155.87 L23.75 155.87" class="st20"/>
			</g>
			<g id="shape293-132" transform="translate(279.836,-135.211) rotate(0.229169)">
				<title>有向线 1.293</title>
				<path d="M0 155.87 L23.75 155.87" class="st20"/>
			</g>
			<g id="shape155-137" transform="translate(63.4961,-5.38583)">
				<title>工作表.155</title>
				<desc>系统环境 外围服务</desc>
				<rect x="0" y="116.187" width="48.7559" height="39.685" class="st16"/>
				<text x="4.38" y="131.03" class="st17">系统环境 <tspan x="4.38" dy="2em" class="st19">外围服务</tspan></text>			</g>
			<g id="shape160-141" transform="translate(54.2834,-7.1985)">
				<title>左括号</title>
				<path d="M9.92 155.87 A71.0367 30.244 0 0 1 4.96 146.14 L4.96 138.98 L0 138.98 L4.96 138.98 L4.96 131.82 A71.0367
							 30.244 0 0 1 9.92 122.08" class="st18"/>
			</g>
			<g id="shape267-144" transform="translate(10.063,-4.25197)">
				<title>圆角矩形.267</title>
				<desc>初始化</desc>
				<path d="M4.25 155.87 L36 155.87 A4.2519 4.2519 -180 0 0 40.25 151.62 L40.25 120.44 A4.2519 4.2519 -180 0 0 36 116.19
							 L4.25 116.19 A4.2519 4.2519 -180 0 0 -0 120.44 L0 151.62 A4.2519 4.2519 -180 0 0 4.25 155.87 Z"
						class="st22"/>
				<text x="5.13" y="139.03" class="st2">初始化</text>			</g>
			<g id="shape276-147" transform="translate(5.66938,-1.13687E-12)">
				<title>圆角矩形.276</title>
				<path d="M5.21 155.87 L106.76 155.87 A5.20774 5.20774 -180 0 0 111.97 150.66 L111.97 110.06 A5.20774 5.20774 -180
							 0 0 106.76 104.85 L5.21 104.85 A5.20774 5.20774 -180 0 0 0 110.06 L0 150.66 A5.20774 5.20774 -180 0
							 0 5.21 155.87 Z" class="st23"/>
			</g>
			<g id="group299-149" transform="translate(5.66929,-64.6299)">
				<title>工作表.299</title>
				<g id="shape15-150" transform="translate(4.39368,-4.25201)">
					<title>圆角矩形.15</title>
					<desc>加载 配置</desc>
					<path d="M4.25 155.87 L36 155.87 A4.2519 4.2519 -180 0 0 40.25 151.62 L40.25 120.44 A4.2519 4.2519 -180 0 0 36
								 116.19 L4.25 116.19 A4.2519 4.2519 -180 0 0 -0 120.44 L0 151.62 A4.2519 4.2519 -180 0 0 4.25 155.87
								 Z" class="st1"/>
					<text x="10.13" y="133.03" class="st2">加载 <tspan x="10.13" dy="1.2em" class="st19">配置</tspan></text>				</g>
				<g id="group153-154" transform="translate(74.4095,-9.21263)">
					<title>工作表.153</title>
					<g id="group152-155">
						<title>工作表.152</title>
						<g id="shape92-156">
							<title>工作表.92</title>
							<rect x="0" y="126.109" width="29.7638" height="29.7638" class="st3"/>
						</g>
						<g id="shape93-158" transform="translate(9.86696,-4.92062)">
							<title>工作表.93</title>
							<path d="M17.84 139.44 L17.84 155.87 L0 155.87 L0 133.17 L11.35 133.17 L17.84 139.44 L17.84 139.44 Z"
									class="st24"/>
						</g>
						<g id="shape94-160" transform="translate(21.2883,-21.416)">
							<title>工作表.94</title>
							<path d="M0.14 150.26 L5.88 155.67 L0 155.87 L0.14 150.26 L0.14 150.26 Z" class="st25"/>
						</g>
						<g id="shape95-162" transform="translate(10.4076,-4.45314)">
							<title>工作表.95</title>
							<path d="M17.64 138.64 L11.35 132.57 L11.35 133.9 C12.5 134.97 15.07 137.51 16.08 138.51 L11.35 138.51
										 L11.35 139.51 L16.83 139.51 L16.83 154.94 L0 154.94 L0 155.87 L17.3 155.87 C17.57 155.87
										 17.77 155.67 17.77 155.4 L17.77 138.98 C17.77 138.91 17.71 138.78 17.64 138.64 Z"
									class="st25"/>
						</g>
						<g id="shape96-164" transform="translate(9.39389,-4.45314)">
							<title>工作表.96</title>
							<path d="M12.16 132.36 C12.1 132.3 12.03 132.23 11.96 132.23 C11.96 132.23 11.89 132.23 11.89 132.23
										 C11.89 132.23 11.89 132.16 11.83 132.16 L0.47 132.16 C0.2 132.16 0 132.43 0 132.7 L0 155.4
										 C0 155.67 0.2 155.87 0.47 155.87 L1.01 155.87 L1.01 154.94 L0.95 154.94 L0.95 133.17 L11.35
										 133.17 L11.35 138.98 C11.35 139.24 11.56 139.51 11.83 139.51 L12.37 139.51 L12.37 132.57
										 L12.16 132.36 Z" class="st25"/>
						</g>
						<g id="shape123-166" transform="translate(3.92291,-1.8732)">
							<title>工作表.123</title>
							<path d="M17.77 139.44 L17.77 155.87 L0 155.87 L0 133.1 L11.35 133.1 L17.77 139.44 L17.77 139.44 Z"
									class="st24"/>
						</g>
						<g id="shape124-168" transform="translate(15.3443,-18.3685)">
							<title>工作表.124</title>
							<path d="M0.14 150.26 L5.88 155.67 L0 155.87 L0.14 150.26 L0.14 150.26 Z" class="st25"/>
						</g>
						<g id="shape125-170" transform="translate(4.39599,-1.40572)">
							<title>工作表.125</title>
							<path d="M17.64 138.64 L11.42 132.57 L11.42 133.9 C12.5 134.97 15.07 137.51 16.15 138.51 L11.42 138.51
										 L11.42 139.44 L16.83 139.44 L16.83 154.94 L0 154.94 L0 155.87 L17.3 155.87 C17.57 155.87
										 17.77 155.67 17.77 155.4 L17.77 138.98 C17.77 138.91 17.71 138.78 17.64 138.64 Z"
									class="st25"/>
						</g>
						<g id="shape126-172" transform="translate(3.38226,-1.40572)">
							<title>工作表.126</title>
							<path d="M12.23 132.3 C12.16 132.3 12.1 132.23 11.96 132.23 C11.96 132.23 11.96 132.23 11.96 132.23 C11.89
										 132.23 11.89 132.16 11.89 132.16 L0.54 132.16 C0.27 132.16 0 132.43 0 132.63 L0 155.4 C0
										 155.67 0.27 155.87 0.54 155.87 L1.01 155.87 L1.01 154.94 L1.01 154.94 L1.01 133.17 L11.42
										 133.17 L11.42 138.98 C11.42 139.24 11.62 139.44 11.89 139.44 L12.44 139.44 L12.44 132.57
										 L12.23 132.3 Z" class="st25"/>
						</g>
					</g>
					<g id="shape151-174" transform="translate(0.749325,-6.18111)">
						<title>工作表.151</title>
						<desc>Config</desc>
						<rect x="0" y="143.908" width="24.0132" height="11.9639" class="st3"/>
						<text x="4.09" y="151.69" class="st12">Config</text>					</g>
				</g>
				<g id="shape278-177">
					<title>圆角矩形.154</title>
					<path d="M5.21 155.87 L106.76 155.87 A5.20774 5.20774 -180 0 0 111.97 150.66 L111.97 110.06 A5.20774 5.20774
								 -180 0 0 106.76 104.85 L5.21 104.85 A5.20774 5.20774 -180 0 0 0 110.06 L0 150.66 A5.20774 5.20774
								 -180 0 0 5.21 155.87 Z" class="st23"/>
				</g>
				<g id="shape285-179" transform="translate(44.6457,-24.0945)">
					<title>有向线 1.285</title>
					<path d="M0 155.87 L28.55 155.87" class="st20"/>
				</g>
			</g>
			<g id="group300-184" transform="translate(143.433,-1.27898E-12)">
				<title>工作表.300</title>
				<g id="shape14-185" transform="translate(6.55512,-4.32657)">
					<title>圆角矩形.14</title>
					<desc>扫描 注解</desc>
					<path d="M4.25 155.87 L36 155.87 A4.25189 4.25189 -180 0 0 40.25 151.62 L40.25 120.44 A4.25189 4.25189 -180 0
								 0 36 116.19 L4.25 116.19 A4.25189 4.25189 -180 0 0 0 120.44 L0 151.62 A4.25189 4.25189 -180 0 0
								 4.25 155.87 Z" class="st22"/>
					<text x="10.13" y="133.03" class="st2">扫描 <tspan x="10.13" dy="1.2em" class="st19">注解</tspan></text>				</g>
				<g id="shape86-189" transform="translate(49.3583,-4.36386)">
					<title>工作表.86</title>
					<desc>@EzSchedules @EzScheduled</desc>
					<rect x="0" y="116.262" width="82.4173" height="39.6104" class="st16"/>
					<text x="5.59" y="131.57" class="st26">@EzSchedules <tspan x="4.77" dy="1.5em" class="st19">@EzScheduled</tspan></text>				</g>
				<g id="shape154-193">
					<title>圆角矩形.154</title>
					<path d="M5.67 155.87 L130.11 155.87 A5.66663 5.66663 -180 0 0 135.78 150.21 L135.78 110.52 A5.66663 5.66663
								 -180 0 0 130.11 104.85 L5.67 104.85 A5.66663 5.66663 -180 0 0 0 110.52 L0 150.21 A5.66663 5.66663
								 -180 0 0 5.67 155.87 Z" class="st23"/>
				</g>
			</g>
			<g id="shape304-195" transform="translate(14.242,112.059) rotate(-90.0729)">
				<title>有向线 1.304</title>
				<path d="M0 155.87 L23.25 155.87" class="st20"/>
			</g>
			<g id="shape306-200" transform="translate(110.551,-24.1691)">
				<title>有向线 1.306</title>
				<path d="M0 155.87 L34.84 155.87" class="st20"/>
			</g>
			<g id="shape311-205" transform="translate(211.323,-71.8583)">
				<title>动态连接线</title>
				<path d="M0 155.87 L0 165.65 L87.27 165.65 L87.27 198.82 L91.64 198.82" class="st20"/>
			</g>
		</g>
	</g>
</svg>
