<?xml version="1.0" encoding="UTF-8" standalone="no"?>
<!DOCTYPE svg PUBLIC "-//W3C//DTD SVG 1.1//EN" "http://www.w3.org/Graphics/SVG/1.1/DTD/svg11.dtd">
<!-- 由 Microsoft Visio, SVG Export 生成 Structure.svg 方案设计 -->
<svg xmlns="http://www.w3.org/2000/svg" xmlns:xlink="http://www.w3.org/1999/xlink" xmlns:ev="http://www.w3.org/2001/xml-events"
		width="6.8534in" height="2.86915in" viewBox="0 0 493.445 206.579" xml:space="preserve" color-interpolation-filters="sRGB"
		class="st28">
	<style type="text/css">
	<![CDATA[
		.st1 {fill:#ffffff;stroke:none;stroke-linecap:round;stroke-linejoin:round;stroke-width:0.5}
		.st2 {fill:#494264;stroke:none;stroke-linecap:round;stroke-linejoin:round;stroke-width:0.5}
		.st3 {fill:#ffffff;font-family:微软雅黑;font-size:0.833336em;font-weight:bold}
		.st4 {fill:none;stroke:none;stroke-linecap:round;stroke-linejoin:round;stroke-width:0.5}
		.st5 {fill:#494264;font-family:Calibri;font-size:0.833336em;font-weight:bold}
		.st6 {font-family:微软雅黑;font-size:1em}
		.st7 {fill:none;stroke:#494264;stroke-dasharray:4.5,4.5;stroke-linecap:round;stroke-linejoin:round;stroke-width:1.5}
		.st8 {visibility:visible}
		.st9 {fill:#000000;stroke:#000000;stroke-linecap:round;stroke-linejoin:round}
		.st10 {fill:#ffffff;stroke:#000000;stroke-linecap:round;stroke-linejoin:round;stroke-width:1.5}
		.st11 {fill:none}
		.st12 {stroke:none;stroke-linecap:round;stroke-linejoin:round;stroke-width:1.5;visibility:hidden}
		.st13 {fill:#494264;font-family:Calibri;font-size:0.499992em;font-weight:bold}
		.st14 {fill:#bebad1;stroke:#bfbfbf;stroke-linecap:round;stroke-linejoin:round;stroke-width:0.75}
		.st15 {stroke:#ffffff;stroke-linecap:butt;stroke-width:0.75}
		.st16 {stroke:#312c43;stroke-linecap:butt;stroke-width:0.75}
		.st17 {fill:none;stroke:none;stroke-linecap:round;stroke-linejoin:round;stroke-width:1.5}
		.st18 {fill:#494264;font-family:微软雅黑;font-size:0.833336em;font-weight:bold}
		.st19 {stroke:#494264;stroke-linecap:round;stroke-linejoin:round;stroke-width:1.5}
		.st20 {font-size:1em}
		.st21 {marker-end:url(#mrkr4-119);stroke:#312c43;stroke-linecap:round;stroke-linejoin:round;stroke-width:0.5}
		.st22 {fill:#312c43;fill-opacity:1;stroke:#312c43;stroke-opacity:1;stroke-width:0.21739130434783}
		.st23 {fill:#494264;stroke:none;stroke-linecap:round;stroke-linejoin:round;stroke-width:1.5}
		.st24 {fill:none;stroke:#494264;stroke-linecap:round;stroke-linejoin:round;stroke-width:1.5}
		.st25 {fill:#fefefe;stroke:none;stroke-linecap:round;stroke-linejoin:round;stroke-width:0.75}
		.st26 {fill:#494264;stroke:none;stroke-linecap:round;stroke-linejoin:round;stroke-width:0.75}
		.st27 {fill:#494264;font-family:Calibri;font-size:1.00001em;font-weight:bold}
		.st28 {fill:none;fill-rule:evenodd;font-size:12px;overflow:visible;stroke-linecap:square;stroke-miterlimit:3}
	]]>
	</style>

	<defs id="Markers">
		<g id="lend4">
			<path d="M 2 1 L 0 0 L 2 -1 L 2 1 " style="stroke:none"/>
		</g>
		<marker id="mrkr4-119" class="st22" refX="-9.2" orient="auto" markerUnits="strokeWidth" overflow="visible">
			<use xlink:href="#lend4" transform="scale(-4.6,-4.6) "/>
		</marker>
	</defs>
	<g>
		<title>方案设计</title>
		<g id="group318-1" transform="translate(18.2499,-18.25)">
			<title>工作表.318</title>
			<g id="shape317-2">
				<title>圆角矩形.239</title>
				<path d="M7.48 206.58 L449.47 206.58 A7.47809 7.47809 -180 0 0 456.94 199.1 L456.94 43.98 A7.47809 7.47809 -180 0
							 0 449.47 36.5 L7.48 36.5 A7.47809 7.47809 -180 0 0 -0 43.98 L0 199.1 A7.47809 7.47809 -180 0 0 7.48
							 206.58 Z" class="st1"/>
			</g>
			<g id="group316-4" transform="translate(4.92717,-9.1122)">
				<title>工作表.316</title>
				<g id="shape13-5" transform="translate(143.433,-71.8583)">
					<title>圆角矩形</title>
					<desc>任务存储中心</desc>
					<path d="M4.46 206.58 L131.31 206.58 A4.46447 4.46447 -180 0 0 135.78 202.11 L135.78 182.7 A4.46447 4.46447 -180
								 0 0 131.31 178.23 L4.46 178.23 A4.46447 4.46447 -180 0 0 -0 182.7 L0 202.11 A4.46447 4.46447 -180
								 0 0 4.46 206.58 Z" class="st2"/>
					<text x="37.89" y="195.41" class="st3">任务存储中心</text>				</g>
				<g id="shape18-8" transform="translate(143.433,-121.039)">
					<title>圆角矩形.18</title>
					<desc>任务调度器</desc>
					<path d="M4.75 206.58 L131.03 206.58 A4.75344 4.75344 -180 0 0 135.78 201.83 L135.78 182.99 A4.75344 4.75344
								 -180 0 0 131.03 178.23 L4.75 178.23 A4.75344 4.75344 -180 0 0 -0 182.99 L0 201.83 A4.75344 4.75344
								 -180 0 0 4.75 206.58 Z" class="st2"/>
					<text x="42.89" y="195.41" class="st3">任务调度器</text>				</g>
				<g id="shape87-11" transform="translate(-7.99361E-15,-125.858)">
					<title>工作表.87</title>
					<desc>@EnableEzScheduling 启用定时任务组件</desc>
					<rect x="0" y="178.232" width="117.921" height="28.3465" class="st4"/>
					<text x="13.49" y="188.56" class="st5">@EnableEzScheduling <tspan x="18.96" dy="1.514em" class="st6">启用定时任务组件</tspan></text>				</g>
				<g id="group270-15" transform="translate(307.559,-71.8583)">
					<title>工作表.270</title>
					<g id="shape150-16">
						<title>圆角矩形.150</title>
						<path d="M4.25 206.58 L131.53 206.58 A4.2519 4.2519 -180 0 0 135.78 202.33 L135.78 133.3 A4.2519 4.2519 -180
									 0 0 131.53 129.05 L4.25 129.05 A4.2519 4.2519 -180 0 0 0 133.3 L0 202.33 A4.2519 4.2519 -180
									 0 0 4.25 206.58 Z" class="st7"/>
					</g>
					<g id="group264-18" transform="translate(10.4173,-11.5374)">
						<title>工作表.264</title>
						<g id="group231-19">
							<title>应用程序窗体</title>
							<g id="shape231-20">
								<g id="shadow231-21" transform="matrix(1,0,0,1,2.12598,2.12598)" class="st8">
									<rect x="0" y="170.757" width="114.945" height="35.8221" rx="4.25197" ry="4.25197" class="st9"/>
								</g>
								<rect x="0" y="170.757" width="114.945" height="35.8221" rx="4.25197" ry="4.25197" class="st10"/>
							</g>
							<g id="shape232-24" transform="translate(0,-16.842)">
								<title>工作表.232</title>
								<desc>[ECS] Admin Panel</desc>
								<rect x="0" y="183.375" width="114.945" height="23.2035" rx="4.25197" ry="4.25197" class="st11"/>
								<rect x="0" y="183.375" width="114.945" height="23.2035" rx="4.25197" ry="4.25197" class="st12"/>
								<text x="8" y="196.78" class="st13">[ECS] Admin Panel</text>							</g>
						</g>
						<g id="group263-28" transform="translate(6.82573,-6.36046)">
							<title>工作表.263</title>
							<g id="group254-29" transform="translate(0,-10.5173)">
								<title>工作表.254</title>
								<g id="shape247-30">
									<title>工作表.247</title>
									<rect x="0" y="202.071" width="101.02" height="4.50741" class="st14"/>
								</g>
								<g id="shape248-32" transform="translate(101.02,410.904) rotate(180)">
									<title>工作表.248</title>
									<g id="shadow248-33" transform="matrix(1,0,0,1,-5.68434E-14,-0.72)" class="st8">
										<path d="M0 206.58 L87.55 206.58" class="st15"/>
									</g>
									<path d="M0 206.58 L87.55 206.58" class="st16"/>
								</g>
								<g id="shape250-38" transform="translate(220.048,202.071) rotate(90)">
									<title>工作表.250</title>
									<g id="shadow250-39" transform="matrix(1,0,0,1,-8.52651E-14,-0.72)" class="st8">
										<path d="M0 206.58 L4.51 206.58" class="st15"/>
									</g>
									<path d="M0 206.58 L4.51 206.58" class="st16"/>
								</g>
							</g>
							<g id="group255-44" transform="translate(0,-5.25866)">
								<title>工作表.255</title>
								<g id="shape256-45">
									<title>工作表.256</title>
									<rect x="0" y="202.071" width="101.02" height="4.50741" class="st14"/>
								</g>
								<g id="shape257-47" transform="translate(101.02,410.904) rotate(180)">
									<title>工作表.257</title>
									<g id="shadow257-48" transform="matrix(1,0,0,1,-5.68434E-14,-0.72)" class="st8">
										<path d="M0 206.58 L87.55 206.58" class="st15"/>
									</g>
									<path d="M0 206.58 L87.55 206.58" class="st16"/>
								</g>
								<g id="shape258-53" transform="translate(220.048,202.071) rotate(90)">
									<title>工作表.258</title>
									<g id="shadow258-54" transform="matrix(1,0,0,1,-5.68434E-14,-0.72)" class="st8">
										<path d="M0 206.58 L4.51 206.58" class="st15"/>
									</g>
									<path d="M0 206.58 L4.51 206.58" class="st16"/>
								</g>
							</g>
							<g id="group259-59">
								<title>工作表.259</title>
								<g id="shape260-60">
									<title>工作表.260</title>
									<rect x="0" y="202.071" width="101.02" height="4.50741" class="st14"/>
								</g>
								<g id="shape261-62" transform="translate(101.02,410.904) rotate(180)">
									<title>工作表.261</title>
									<g id="shadow261-63" transform="matrix(1,0,0,1,-5.68434E-14,-0.72)" class="st8">
										<path d="M0 206.58 L87.55 206.58" class="st15"/>
									</g>
									<path d="M0 206.58 L87.55 206.58" class="st16"/>
								</g>
								<g id="shape262-68" transform="translate(220.048,202.071) rotate(90)">
									<title>工作表.262</title>
									<g id="shadow262-69" transform="matrix(1,0,0,1,-7.10543E-14,-0.72)" class="st8">
										<path d="M0 206.58 L4.51 206.58" class="st15"/>
									</g>
									<path d="M0 206.58 L4.51 206.58" class="st16"/>
								</g>
							</g>
						</g>
					</g>
					<g id="shape265-74" transform="translate(1.83853E-13,-47.4781)">
						<title>工作表.265</title>
						<desc>管理端控制面板</desc>
						<rect x="0" y="176.529" width="135.78" height="30.0494" class="st17"/>
						<text x="32.89" y="194.59" class="st18">管理端控制面板</text>					</g>
				</g>
				<g id="group271-77" transform="translate(307.559,-2.84217E-14)">
					<title>工作表.271</title>
					<g id="shape17-78">
						<title>圆角矩形.17</title>
						<path d="M4.25 206.58 L131.53 206.58 A4.2519 4.2519 -180 0 0 135.78 202.33 L135.78 153 A4.2519 4.2519 -180
									 0 0 131.53 148.75 L4.25 148.75 A4.2519 4.2519 -180 0 0 -0 153 L0 202.33 A4.2519 4.2519 -180
									 0 0 4.25 206.58 Z" class="st7"/>
					</g>
					<g id="group84-80" transform="translate(69.6614,-8.62063)">
						<title>工作表.84</title>
						<g id="group59-81" transform="translate(35.433,0)">
							<title>工作表.59</title>
							<g id="shape26-82" transform="translate(206.579,183.164) rotate(90)">
								<title>直线</title>
								<path d="M0 206.58 L20.07 206.58" class="st19"/>
							</g>
							<g id="shape43-85" transform="translate(21.2598,396.433) rotate(180)">
								<title>工作表.43</title>
								<path d="M-0 206.58 A10.6299 4.25198 -180 0 1 21.26 206.58" class="st19"/>
							</g>
							<g id="shape45-88" transform="translate(21.2598,403.123) rotate(180)">
								<title>工作表.45</title>
								<path d="M-0 206.58 A10.6299 4.25198 -180 0 1 21.26 206.58" class="st19"/>
							</g>
							<g id="shape46-91" transform="translate(21.2598,409.813) rotate(180)">
								<title>工作表.46</title>
								<path d="M-0 206.58 A10.6299 4.25198 -180 0 1 21.26 206.58" class="st19"/>
							</g>
							<g id="shape47-94" transform="translate(227.839,183.164) rotate(90)">
								<title>直线.47</title>
								<path d="M0 206.58 L20.07 206.58" class="st19"/>
							</g>
							<g id="shape57-97" transform="translate(21.2598,389.743) rotate(180)">
								<title>工作表.57</title>
								<path d="M-0 206.58 A10.6299 4.25198 -180 0 1 21.26 206.58" class="st19"/>
							</g>
							<g id="shape58-100" transform="translate(21.2598,-23.4147) scale(-1,1)">
								<title>工作表.58</title>
								<path d="M-0 206.58 A10.6299 4.25198 -180 0 1 21.26 206.58" class="st19"/>
							</g>
						</g>
						<g id="shape61-103" transform="translate(5.59552E-14,-11.5959)">
							<title>工作表.61</title>
							<desc>SQL Server</desc>
							<rect x="0" y="177.589" width="35.433" height="28.9897" class="st17"/>
							<text x="9.81" y="189.08" class="st5">SQL <tspan x="4.4" dy="1.2em" class="st20">Server</tspan></text>						</g>
						<g id="shape82-107" transform="translate(9.19265E-14,-5.79793)">
							<title>工作表.82</title>
							<path d="M2.51 206.58 L30.71 206.58" class="st19"/>
							<path d="M46.06 179.91 L46.06 174.28 A2.50679 2.48479 -180 0 0 43.56 171.79 L2.51 171.79 A2.50679 2.48479
										 -180 0 0 0 174.28 L0 204.09 A2.50679 2.48479 -180 0 0 2.51 206.58" class="st19"/>
						</g>
					</g>
					<g id="shape156-111" transform="translate(2.79776E-14,-1.44949)">
						<title>工作表.156</title>
						<desc>持久化服务</desc>
						<rect x="0" y="151.651" width="67.8898" height="54.9278" class="st17"/>
						<text x="8.94" y="182.15" class="st18">持久化服务</text>					</g>
				</g>
				<g id="shape282-114" transform="translate(236.768,80.7205) rotate(90)">
					<title>有向线 1</title>
					<path d="M0 206.58 L12.69 206.58" class="st21"/>
				</g>
				<g id="shape289-120" transform="translate(236.768,137.697) rotate(90)">
					<title>有向线 1.289</title>
					<path d="M0 206.58 L20.34 206.58" class="st21"/>
				</g>
				<g id="shape290-125" transform="translate(417.902,85.5394) rotate(90)">
					<title>有向线 1.290</title>
					<path d="M0 206.58 L16.23 206.58" class="st21"/>
				</g>
				<g id="shape292-130" transform="translate(279.013,-86.0314) rotate(-0.0554098)">
					<title>有向线 1.292</title>
					<path d="M0 206.58 L23.75 206.58" class="st21"/>
				</g>
				<g id="shape293-135" transform="translate(280.039,-135.211) rotate(0.229169)">
					<title>有向线 1.293</title>
					<path d="M0 206.58 L23.75 206.58" class="st21"/>
				</g>
				<g id="shape155-140" transform="translate(63.4961,-5.38583)">
					<title>工作表.155</title>
					<desc>系统环境 外围服务</desc>
					<rect x="0" y="166.894" width="48.7559" height="39.685" class="st17"/>
					<text x="4.38" y="181.74" class="st18">系统环境 <tspan x="4.38" dy="2em" class="st20">外围服务</tspan></text>				</g>
				<g id="shape160-144" transform="translate(54.2834,-7.1985)">
					<title>左括号</title>
					<path d="M9.92 206.58 A71.0367 30.244 0 0 1 4.96 196.84 L4.96 189.68 L0 189.68 L4.96 189.68 L4.96 182.52 A71.0367
								 30.244 0 0 1 9.92 172.79" class="st19"/>
				</g>
				<g id="shape267-147" transform="translate(10.063,-4.25197)">
					<title>圆角矩形.267</title>
					<desc>初始化</desc>
					<path d="M4.25 206.58 L36 206.58 A4.2519 4.2519 -180 0 0 40.25 202.33 L40.25 171.15 A4.2519 4.2519 -180 0 0 36
								 166.89 L4.25 166.89 A4.2519 4.2519 -180 0 0 -0 171.15 L0 202.33 A4.2519 4.2519 -180 0 0 4.25 206.58
								 Z" class="st23"/>
					<text x="5.13" y="189.74" class="st3">初始化</text>				</g>
				<g id="shape276-150" transform="translate(5.66938,-1.13687E-12)">
					<title>圆角矩形.276</title>
					<path d="M5.21 206.58 L106.76 206.58 A5.20774 5.20774 -180 0 0 111.97 201.37 L111.97 160.76 A5.20774 5.20774
								 -180 0 0 106.76 155.56 L5.21 155.56 A5.20774 5.20774 -180 0 0 0 160.76 L0 201.37 A5.20774 5.20774
								 -180 0 0 5.21 206.58 Z" class="st24"/>
				</g>
				<g id="group299-152" transform="translate(5.66929,-64.6299)">
					<title>工作表.299</title>
					<g id="shape15-153" transform="translate(4.39368,-4.25201)">
						<title>圆角矩形.15</title>
						<desc>加载 配置</desc>
						<path d="M4.25 206.58 L36 206.58 A4.2519 4.2519 -180 0 0 40.25 202.33 L40.25 171.15 A4.2519 4.2519 -180 0
									 0 36 166.89 L4.25 166.89 A4.2519 4.2519 -180 0 0 -0 171.15 L0 202.33 A4.2519 4.2519 -180 0 0
									 4.25 206.58 Z" class="st2"/>
						<text x="10.13" y="183.74" class="st3">加载 <tspan x="10.13" dy="1.2em" class="st20">配置</tspan></text>					</g>
					<g id="group153-157" transform="translate(74.4095,-9.21263)">
						<title>工作表.153</title>
						<g id="group152-158">
							<title>工作表.152</title>
							<g id="shape92-159">
								<title>工作表.92</title>
								<rect x="0" y="176.815" width="29.7638" height="29.7638" class="st4"/>
							</g>
							<g id="shape93-161" transform="translate(9.86696,-4.92062)">
								<title>工作表.93</title>
								<path d="M17.84 190.15 L17.84 206.58 L0 206.58 L0 183.87 L11.35 183.87 L17.84 190.15 L17.84 190.15
											 Z" class="st25"/>
							</g>
							<g id="shape94-163" transform="translate(21.2883,-21.416)">
								<title>工作表.94</title>
								<path d="M0.14 200.97 L5.88 206.38 L0 206.58 L0.14 200.97 L0.14 200.97 Z" class="st26"/>
							</g>
							<g id="shape95-165" transform="translate(10.4076,-4.45314)">
								<title>工作表.95</title>
								<path d="M17.64 189.35 L11.35 183.27 L11.35 184.61 C12.5 185.68 15.07 188.21 16.08 189.22 L11.35
											 189.22 L11.35 190.22 L16.83 190.22 L16.83 205.64 L0 205.64 L0 206.58 L17.3 206.58 C17.57
											 206.58 17.77 206.38 17.77 206.11 L17.77 189.68 C17.77 189.62 17.71 189.48 17.64 189.35
											 Z" class="st26"/>
							</g>
							<g id="shape96-167" transform="translate(9.39389,-4.45314)">
								<title>工作表.96</title>
								<path d="M12.16 183.07 C12.1 183 12.03 182.94 11.96 182.94 C11.96 182.94 11.89 182.94 11.89 182.94
											 C11.89 182.94 11.89 182.87 11.83 182.87 L0.47 182.87 C0.2 182.87 0 183.14 0 183.41 L0
											 206.11 C0 206.38 0.2 206.58 0.47 206.58 L1.01 206.58 L1.01 205.64 L0.95 205.64 L0.95
											 183.87 L11.35 183.87 L11.35 189.68 C11.35 189.95 11.56 190.22 11.83 190.22 L12.37 190.22
											 L12.37 183.27 L12.16 183.07 Z" class="st26"/>
							</g>
							<g id="shape123-169" transform="translate(3.92291,-1.8732)">
								<title>工作表.123</title>
								<path d="M17.77 190.15 L17.77 206.58 L0 206.58 L0 183.81 L11.35 183.81 L17.77 190.15 L17.77 190.15
											 Z" class="st25"/>
							</g>
							<g id="shape124-171" transform="translate(15.3443,-18.3685)">
								<title>工作表.124</title>
								<path d="M0.14 200.97 L5.88 206.38 L0 206.58 L0.14 200.97 L0.14 200.97 Z" class="st26"/>
							</g>
							<g id="shape125-173" transform="translate(4.39599,-1.40572)">
								<title>工作表.125</title>
								<path d="M17.64 189.35 L11.42 183.27 L11.42 184.61 C12.5 185.68 15.07 188.21 16.15 189.22 L11.42
											 189.22 L11.42 190.15 L16.83 190.15 L16.83 205.64 L0 205.64 L0 206.58 L17.3 206.58 C17.57
											 206.58 17.77 206.38 17.77 206.11 L17.77 189.68 C17.77 189.62 17.71 189.48 17.64 189.35
											 Z" class="st26"/>
							</g>
							<g id="shape126-175" transform="translate(3.38226,-1.40572)">
								<title>工作表.126</title>
								<path d="M12.23 183 C12.16 183 12.1 182.94 11.96 182.94 C11.96 182.94 11.96 182.94 11.96 182.94 C11.89
											 182.94 11.89 182.87 11.89 182.87 L0.54 182.87 C0.27 182.87 0 183.14 0 183.34 L0 206.11
											 C0 206.38 0.27 206.58 0.54 206.58 L1.01 206.58 L1.01 205.64 L1.01 205.64 L1.01 183.87
											 L11.42 183.87 L11.42 189.68 C11.42 189.95 11.62 190.15 11.89 190.15 L12.44 190.15 L12.44
											 183.27 L12.23 183 Z" class="st26"/>
							</g>
						</g>
						<g id="shape151-177" transform="translate(0.749325,-6.18111)">
							<title>工作表.151</title>
							<desc>Config</desc>
							<rect x="0" y="194.615" width="24.0132" height="11.9639" class="st4"/>
							<text x="4.09" y="202.4" class="st13">Config</text>						</g>
					</g>
					<g id="shape278-180">
						<title>圆角矩形.154</title>
						<path d="M5.21 206.58 L106.76 206.58 A5.20774 5.20774 -180 0 0 111.97 201.37 L111.97 160.76 A5.20774 5.20774
									 -180 0 0 106.76 155.56 L5.21 155.56 A5.20774 5.20774 -180 0 0 0 160.76 L0 201.37 A5.20774 5.20774
									 -180 0 0 5.21 206.58 Z" class="st24"/>
					</g>
					<g id="shape285-182" transform="translate(44.6457,-24.0945)">
						<title>有向线 1.285</title>
						<path d="M0 206.58 L28.55 206.58" class="st21"/>
					</g>
				</g>
				<g id="group300-187" transform="translate(143.433,-1.27898E-12)">
					<title>工作表.300</title>
					<g id="shape14-188" transform="translate(6.55512,-4.32657)">
						<title>圆角矩形.14</title>
						<desc>扫描 注解</desc>
						<path d="M4.25 206.58 L36 206.58 A4.25189 4.25189 -180 0 0 40.25 202.33 L40.25 171.15 A4.25189 4.25189 -180
									 0 0 36 166.89 L4.25 166.89 A4.25189 4.25189 -180 0 0 0 171.15 L0 202.33 A4.25189 4.25189 -180
									 0 0 4.25 206.58 Z" class="st23"/>
						<text x="10.13" y="183.74" class="st3">扫描 <tspan x="10.13" dy="1.2em" class="st20">注解</tspan></text>					</g>
					<g id="shape86-192" transform="translate(49.3583,-4.36386)">
						<title>工作表.86</title>
						<desc>@EzSchedules @EzScheduled</desc>
						<rect x="0" y="166.968" width="82.4173" height="39.6104" class="st17"/>
						<text x="5.59" y="182.27" class="st27">@EzSchedules <tspan x="4.77" dy="1.5em" class="st20">@EzScheduled</tspan></text>					</g>
					<g id="shape154-196">
						<title>圆角矩形.154</title>
						<path d="M5.67 206.58 L130.11 206.58 A5.66663 5.66663 -180 0 0 135.78 200.91 L135.78 161.22 A5.66663 5.66663
									 -180 0 0 130.11 155.56 L5.67 155.56 A5.66663 5.66663 -180 0 0 0 161.22 L0 200.91 A5.66663 5.66663
									 -180 0 0 5.67 206.58 Z" class="st24"/>
					</g>
				</g>
				<g id="shape304-198" transform="translate(-36.4644,162.83) rotate(-90.0729)">
					<title>有向线 1.304</title>
					<path d="M0 206.58 L23.25 206.58" class="st21"/>
				</g>
				<g id="shape306-203" transform="translate(110.551,-24.1691)">
					<title>有向线 1.306</title>
					<path d="M0 206.58 L34.84 206.58" class="st21"/>
				</g>
				<g id="shape311-208" transform="translate(211.323,-71.8583)">
					<title>动态连接线</title>
					<path d="M0 206.58 L0 216.36 L87.27 216.36 L87.27 249.52 L91.64 249.52" class="st21"/>
				</g>
			</g>
		</g>
	</g>
</svg>
